<?xml version="1.0" encoding="UTF-8" standalone="no"?>
<!-- Created with Inkscape (http://www.inkscape.org/) -->

<svg
   xmlns:dc="http://purl.org/dc/elements/1.1/"
   xmlns:cc="http://creativecommons.org/ns#"
   xmlns:rdf="http://www.w3.org/1999/02/22-rdf-syntax-ns#"
   xmlns:svg="http://www.w3.org/2000/svg"
   xmlns="http://www.w3.org/2000/svg"
   xmlns:xlink="http://www.w3.org/1999/xlink"
   xmlns:sodipodi="http://sodipodi.sourceforge.net/DTD/sodipodi-0.dtd"
   xmlns:inkscape="http://www.inkscape.org/namespaces/inkscape"
   width="1561.787"
   height="112.41081"
   viewBox="0 0 1464.1753 105.38514"
   id="svg7090"
   version="1.1"
   inkscape:version="0.92.2 5c3e80d, 2017-08-06"
   sodipodi:docname="homepage-clouds-bottom.svg"
   inkscape:export-filename="/Users/chrisjrn/Desktop/tinyletter-background.png"
   inkscape:export-xdpi="635"
   inkscape:export-ydpi="635">
  <defs
     id="defs7092">
    <linearGradient
       id="linearGradient6747">
      <stop
         id="stop6749"
         offset="0"
         style="stop-color:#3c9c00;stop-opacity:1" />
      <stop
         id="stop6751"
         offset="1"
         style="stop-color:#309600;stop-opacity:1;" />
    </linearGradient>
    <clipPath
       id="clipPath3055"
       clipPathUnits="userSpaceOnUse">
      <path
         id="path3057"
         d="M 0,0 H 487 V 172 H 0 Z"
         inkscape:connector-curvature="0" />
    </clipPath>
    <linearGradient
       id="linearGradient2795">
      <stop
         style="stop-color:#b8b8b8;stop-opacity:0.49803922;"
         offset="0"
         id="stop2797" />
      <stop
         style="stop-color:#7f7f7f;stop-opacity:0;"
         offset="1"
         id="stop2799" />
    </linearGradient>
    <linearGradient
       id="linearGradient2787">
      <stop
         style="stop-color:#7f7f7f;stop-opacity:0.5;"
         offset="0"
         id="stop2789" />
      <stop
         style="stop-color:#7f7f7f;stop-opacity:0;"
         offset="1"
         id="stop2791" />
    </linearGradient>
    <linearGradient
       id="linearGradient3676">
      <stop
         style="stop-color:#b2b2b2;stop-opacity:0.5;"
         offset="0"
         id="stop3678" />
      <stop
         style="stop-color:#b3b3b3;stop-opacity:0;"
         offset="1"
         id="stop3680" />
    </linearGradient>
    <linearGradient
       id="linearGradient3236">
      <stop
         style="stop-color:#f4f4f4;stop-opacity:1"
         offset="0"
         id="stop3244" />
      <stop
         style="stop-color:white;stop-opacity:1"
         offset="1"
         id="stop3240" />
    </linearGradient>
    <linearGradient
       id="linearGradient4671">
      <stop
         style="stop-color:#ffd43b;stop-opacity:1;"
         offset="0"
         id="stop4673" />
      <stop
         style="stop-color:#ffe873;stop-opacity:1"
         offset="1"
         id="stop4675" />
    </linearGradient>
    <linearGradient
       id="linearGradient4689">
      <stop
         style="stop-color:#4abf00;stop-opacity:1;"
         offset="0"
         id="stop4691" />
      <stop
         style="stop-color:#309600;stop-opacity:1;"
         offset="1"
         id="stop4693" />
    </linearGradient>
    <linearGradient
       x1="224.23996"
       y1="144.75717"
       x2="-65.308502"
       y2="144.75717"
       id="linearGradient2987"
       xlink:href="#linearGradient4671"
       gradientUnits="userSpaceOnUse"
       gradientTransform="translate(100.2702,99.61116)" />
    <linearGradient
       x1="172.94208"
       y1="77.475983"
       x2="26.670298"
       y2="76.313133"
       id="linearGradient2990"
       xlink:href="#linearGradient4689"
       gradientUnits="userSpaceOnUse"
       gradientTransform="translate(100.2702,99.61116)" />
    <linearGradient
       inkscape:collect="always"
       xlink:href="#linearGradient4671"
       id="linearGradient2255"
       gradientUnits="userSpaceOnUse"
       gradientTransform="matrix(0.562541,0,0,0.567972,-11.5974,-7.60954)"
       x1="224.23996"
       y1="144.75717"
       x2="-65.308502"
       y2="144.75717" />
    <linearGradient
       inkscape:collect="always"
       xlink:href="#linearGradient4689"
       id="linearGradient2258"
       gradientUnits="userSpaceOnUse"
       gradientTransform="matrix(0.562541,0,0,0.567972,-11.5974,-7.60954)"
       x1="172.94208"
       y1="76.176224"
       x2="26.670298"
       y2="76.313133" />
    <radialGradient
       inkscape:collect="always"
       xlink:href="#linearGradient2795"
       id="radialGradient2801"
       cx="61.518883"
       cy="132.28575"
       fx="61.518883"
       fy="132.28575"
       r="29.036913"
       gradientTransform="matrix(1,0,0,0.177966,0,108.7434)"
       gradientUnits="userSpaceOnUse" />
    <radialGradient
       inkscape:collect="always"
       xlink:href="#linearGradient2795"
       id="radialGradient1480"
       gradientUnits="userSpaceOnUse"
       gradientTransform="matrix(2.382716e-8,-0.296405,1.43676,4.683673e-7,-128.544,150.5202)"
       cx="61.518883"
       cy="132.28575"
       fx="61.518883"
       fy="132.28575"
       r="29.036913" />
    <linearGradient
       id="linearGradient4125">
      <stop
         style="stop-color:#000080;stop-opacity:0.28456914;"
         offset="0"
         id="stop4127" />
      <stop
         style="stop-color:#000080;stop-opacity:0;"
         offset="1"
         id="stop4129" />
    </linearGradient>
    <inkscape:perspective
       sodipodi:type="inkscape:persp3d"
       inkscape:vp_x="0 : 526.18112 : 1"
       inkscape:vp_y="0 : 1000 : 0"
       inkscape:vp_z="744.09451 : 526.18112 : 1"
       inkscape:persp3d-origin="372.04724 : 350.7874 : 1"
       id="perspective3015" />
    <clipPath
       id="clipPath3055-6"
       clipPathUnits="userSpaceOnUse">
      <path
         id="path3057-3"
         d="M 0,0 H 487 V 172 H 0 Z"
         inkscape:connector-curvature="0" />
    </clipPath>
    <linearGradient
       x1="224.23996"
       y1="144.75717"
       x2="-65.308502"
       y2="144.75717"
       id="linearGradient5337"
       xlink:href="#linearGradient4671"
       gradientUnits="userSpaceOnUse"
       gradientTransform="translate(100.2702,99.61116)" />
    <linearGradient
       x1="172.94208"
       y1="77.475983"
       x2="26.670298"
       y2="76.313133"
       id="linearGradient5339"
       xlink:href="#linearGradient4689"
       gradientUnits="userSpaceOnUse"
       gradientTransform="translate(100.2702,99.61116)" />
    <linearGradient
       inkscape:collect="always"
       xlink:href="#linearGradient4671"
       id="linearGradient5341"
       gradientUnits="userSpaceOnUse"
       gradientTransform="matrix(0.562541,0,0,0.567972,-11.5974,-7.60954)"
       x1="224.23996"
       y1="144.75717"
       x2="-65.308502"
       y2="144.75717" />
    <linearGradient
       inkscape:collect="always"
       xlink:href="#linearGradient4689"
       id="linearGradient5343"
       gradientUnits="userSpaceOnUse"
       gradientTransform="matrix(0.562541,0,0,0.567972,-11.5974,-7.60954)"
       x1="172.94208"
       y1="76.176224"
       x2="26.670298"
       y2="76.313133" />
    <radialGradient
       inkscape:collect="always"
       xlink:href="#linearGradient2795"
       id="radialGradient2801-4"
       cx="61.518883"
       cy="132.28575"
       fx="61.518883"
       fy="132.28575"
       r="29.036913"
       gradientTransform="matrix(1,0,0,0.177966,0,108.7434)"
       gradientUnits="userSpaceOnUse" />
    <radialGradient
       inkscape:collect="always"
       xlink:href="#linearGradient2795"
       id="radialGradient1480-2"
       gradientUnits="userSpaceOnUse"
       gradientTransform="matrix(2.382716e-8,-0.296405,1.43676,4.683673e-7,-128.544,150.5202)"
       cx="61.518883"
       cy="132.28575"
       fx="61.518883"
       fy="132.28575"
       r="29.036913" />
    <inkscape:perspective
       sodipodi:type="inkscape:persp3d"
       inkscape:vp_x="0 : 526.18111 : 1"
       inkscape:vp_y="0 : 1000 : 0"
       inkscape:vp_z="744.09455 : 526.18111 : 1"
       inkscape:persp3d-origin="372.04727 : 350.7874 : 1"
       id="perspective3015-3" />
    <clipPath
       id="clipPath3055-0"
       clipPathUnits="userSpaceOnUse">
      <path
         id="path3057-7"
         d="M 0,0 H 487 V 172 H 0 Z"
         inkscape:connector-curvature="0" />
    </clipPath>
    <linearGradient
       x1="224.23996"
       y1="144.75717"
       x2="-65.308502"
       y2="144.75717"
       id="linearGradient4668"
       xlink:href="#linearGradient4671"
       gradientUnits="userSpaceOnUse"
       gradientTransform="translate(100.2702,99.61116)" />
    <linearGradient
       x1="172.94208"
       y1="77.475983"
       x2="26.670298"
       y2="76.313133"
       id="linearGradient4670"
       xlink:href="#linearGradient4689"
       gradientUnits="userSpaceOnUse"
       gradientTransform="translate(100.2702,99.61116)" />
    <linearGradient
       inkscape:collect="always"
       xlink:href="#linearGradient4671"
       id="linearGradient4672"
       gradientUnits="userSpaceOnUse"
       gradientTransform="matrix(0.562541,0,0,0.567972,-11.5974,-7.60954)"
       x1="224.23996"
       y1="144.75717"
       x2="-65.308502"
       y2="144.75717" />
    <linearGradient
       inkscape:collect="always"
       xlink:href="#linearGradient4689"
       id="linearGradient4674"
       gradientUnits="userSpaceOnUse"
       gradientTransform="matrix(0.562541,0,0,0.567972,-11.5974,-7.60954)"
       x1="172.94208"
       y1="76.176224"
       x2="26.670298"
       y2="76.313133" />
    <radialGradient
       inkscape:collect="always"
       xlink:href="#linearGradient2795"
       id="radialGradient2801-3"
       cx="61.518883"
       cy="132.28575"
       fx="61.518883"
       fy="132.28575"
       r="29.036913"
       gradientTransform="matrix(1,0,0,0.177966,0,108.7434)"
       gradientUnits="userSpaceOnUse" />
    <radialGradient
       inkscape:collect="always"
       xlink:href="#linearGradient2795"
       id="radialGradient1480-5"
       gradientUnits="userSpaceOnUse"
       gradientTransform="matrix(2.382716e-8,-0.296405,1.43676,4.683673e-7,-128.544,150.5202)"
       cx="61.518883"
       cy="132.28575"
       fx="61.518883"
       fy="132.28575"
       r="29.036913" />
    <inkscape:perspective
       sodipodi:type="inkscape:persp3d"
       inkscape:vp_x="0 : 526.18109 : 1"
       inkscape:vp_y="0 : 999.99999 : 0"
       inkscape:vp_z="744.09453 : 526.18109 : 1"
       inkscape:persp3d-origin="372.04725 : 350.78738 : 1"
       id="perspective3015-0" />
  </defs>
  <sodipodi:namedview
     id="base"
     pagecolor="#ffffff"
     bordercolor="#666666"
     borderopacity="1.0"
     inkscape:pageopacity="0.0"
     inkscape:pageshadow="2"
     inkscape:zoom="0.49394029"
     inkscape:cx="776.84118"
     inkscape:cy="222.02175"
     inkscape:document-units="px"
     inkscape:current-layer="layer1"
     showgrid="false"
     fit-margin-top="0"
     fit-margin-left="0"
     fit-margin-right="0"
     fit-margin-bottom="0"
     borderlayer="true"
     inkscape:window-width="1440"
     inkscape:window-height="806"
     inkscape:window-x="0"
     inkscape:window-y="-22"
     inkscape:window-maximized="0"
     units="px" />
  <metadata
     id="metadata7095">
    <rdf:RDF>
      <cc:Work
         rdf:about="">
        <dc:format>image/svg+xml</dc:format>
        <dc:type
           rdf:resource="http://purl.org/dc/dcmitype/StillImage" />
        <dc:title></dc:title>
      </cc:Work>
    </rdf:RDF>
  </metadata>
  <g
     inkscape:label="Layer 1"
     inkscape:groupmode="layer"
     id="layer1"
     transform="translate(602.28704,180.18341)">
    <path
       inkscape:export-ydpi="187.72"
       inkscape:export-xdpi="187.72"
       inkscape:export-filename="/Users/chrisjrn/Desktop/nbp-logo-2"
       style="fill:#ffffff;fill-opacity:1;stroke:#000000;stroke-width:4.00000048;stroke-miterlimit:4;stroke-dasharray:none;stroke-opacity:1"
       d="m -565.18123,-114.11374 c -0.25719,-0.023 -0.9257,-0.12486 -1.16172,-0.17702 -1.00602,-0.22235 -2.04984,-0.67975 -2.80866,-1.23076 l -0.18454,-0.134 -0.19041,0.0959 c -0.4653,0.23431 -0.8614,0.32357 -1.43593,0.32357 -0.4646,0 -0.65308,-0.0288 -1.04159,-0.15923 -0.29295,-0.0983 -0.65479,-0.28724 -0.888,-0.46356 -0.11138,-0.0842 -0.22095,-0.14747 -0.24351,-0.14056 -0.0226,0.007 -0.18047,0.0628 -0.35094,0.12421 -0.17046,0.0614 -0.46567,0.14444 -0.65602,0.18451 -0.3089,0.065 -0.4078,0.0731 -0.92012,0.0748 -0.60182,0.002 -0.75986,-0.0154 -1.25715,-0.13929 -0.72399,-0.18034 -1.34787,-0.52242 -1.83426,-1.00574 -0.37971,-0.37732 -0.62612,-0.78914 -0.75299,-1.25843 -0.0839,-0.31047 -0.084,-0.86478 -5e-5,-1.17538 0.28835,-1.06735 1.32837,-1.9645 2.63054,-2.26917 l 0.20749,-0.0485 -0.0128,-0.26656 c -0.0226,-0.47057 0.12272,-0.79144 0.53201,-1.17423 0.256,-0.23943 0.5503,-0.42102 0.9278,-0.57247 0.2779,-0.11149 0.89088,-0.2749 1.03118,-0.2749 0.0908,0 0.0926,0.0286 -0.025,-0.39636 -0.0696,-0.25126 -0.0759,-0.31418 -0.0778,-0.77903 -10e-4,-0.33471 0.0102,-0.55652 0.0343,-0.65603 0.16716,-0.69004 0.44878,-1.20809 0.90662,-1.66774 0.45175,-0.45354 1.00587,-0.74934 1.66741,-0.8901 0.28446,-0.0605 0.87839,-0.0678 1.17539,-0.0145 0.43316,0.0778 0.91902,0.27524 1.28839,0.52342 0.38388,0.25794 0.88053,0.82958 1.06779,1.22903 0.0346,0.0738 0.0709,0.13472 0.0806,0.13534 0.01,5.2e-4 0.0974,-0.0472 0.19471,-0.10641 0.32559,-0.1978 0.76722,-0.35088 1.19107,-0.41285 0.1504,-0.022 0.22292,-0.0444 0.22292,-0.0688 0,-0.0199 0.058,-0.15074 0.12908,-0.2907 0.10924,-0.2154 0.17328,-0.2989 0.41685,-0.54349 0.4939,-0.49598 1.03522,-0.78639 1.82539,-0.97929 0.47449,-0.11584 0.78555,-0.15125 1.31885,-0.15015 1.82588,0.004 3.35806,0.8615 3.68135,2.06079 0.0654,0.24253 0.0608,0.66436 -0.01,0.90281 l -0.0528,0.17843 0.34316,-0.11572 c 0.89648,-0.30231 1.89577,-0.35828 2.85984,-0.1602 1.25739,0.25837 2.19726,0.94648 2.3884,1.74868 0.0392,0.16429 0.0403,0.51373 0.002,0.64396 -0.0439,0.15004 -0.0392,0.15588 0.14285,0.17608 0.47806,0.053 1.12171,0.24168 1.60506,0.47037 0.87442,0.41372 1.55004,1.05133 1.90069,1.79379 0.54021,1.14381 0.2704,2.40281 -0.72025,3.36091 -0.56101,0.54258 -1.27378,0.93019 -2.10427,1.14433 -0.17536,0.0452 -0.32569,0.0909 -0.33408,0.10144 -0.63403,0.80003 -1.19834,1.25719 -2.08449,1.68867 -1.25064,0.60895 -2.83687,0.80455 -4.27894,0.52765 -0.54411,-0.10448 -1.23427,-0.33612 -1.69617,-0.56929 l -0.17466,-0.0882 -0.29229,0.13879 c -0.71274,0.33845 -1.43494,0.55309 -2.31024,0.68662 -0.29451,0.0449 -0.54012,0.0604 -1.06605,0.0669 -0.37585,0.005 -0.73871,0.004 -0.80637,-0.002 z"
       id="path4239"
       inkscape:connector-curvature="0"
       sodipodi:nodetypes="csscssssssssssssscsssssssssssscssssssssscssscssssscssscssscc" />
    <path
       sodipodi:nodetypes="csscssssssssssssscsssssssssssscssssssssscssscssssscssscssscc"
       inkscape:connector-curvature="0"
       id="path4247"
       d="m -462.79482,-166.02565 c -0.20113,-0.018 -0.72392,-0.0976 -0.90849,-0.13844 -0.78673,-0.17388 -1.60302,-0.53158 -2.19643,-0.96248 l -0.14432,-0.1048 -0.1489,0.075 c -0.36388,0.18324 -0.67364,0.25304 -1.12293,0.25304 -0.36333,0 -0.51072,-0.0225 -0.81455,-0.12452 -0.22909,-0.0769 -0.51206,-0.22463 -0.69443,-0.36252 -0.0871,-0.0659 -0.17279,-0.11532 -0.19043,-0.10992 -0.0177,0.006 -0.14113,0.0491 -0.27445,0.0971 -0.1333,0.048 -0.36416,0.11296 -0.51302,0.14429 -0.24156,0.0508 -0.31891,0.0572 -0.71955,0.0585 -0.47064,0.002 -0.59423,-0.012 -0.98312,-0.10893 -0.56618,-0.14103 -1.05407,-0.40855 -1.43443,-0.78652 -0.29694,-0.29507 -0.48964,-0.61712 -0.58886,-0.98411 -0.0656,-0.24279 -0.0657,-0.67628 -4e-5,-0.91917 0.2255,-0.8347 1.03882,-1.53629 2.05714,-1.77454 l 0.16227,-0.0379 -0.01,-0.20846 c -0.0177,-0.368 0.096,-0.61892 0.41604,-0.91827 0.2002,-0.18724 0.43035,-0.32925 0.72556,-0.44769 0.21732,-0.0872 0.69669,-0.21498 0.8064,-0.21498 0.071,0 0.0724,0.0224 -0.0195,-0.30996 -0.0544,-0.19649 -0.0593,-0.24569 -0.0608,-0.60922 -7.8e-4,-0.26175 0.008,-0.43521 0.0268,-0.51303 0.13072,-0.53962 0.35095,-0.94475 0.70899,-1.30421 0.35328,-0.35467 0.78661,-0.586 1.30395,-0.69607 0.22246,-0.0473 0.68692,-0.053 0.91918,-0.0113 0.33874,0.0608 0.7187,0.21524 1.00755,0.40932 0.30021,0.20172 0.6886,0.64875 0.83504,0.96113 0.0271,0.0577 0.0554,0.10535 0.063,0.10584 0.008,4.1e-4 0.0762,-0.0369 0.15227,-0.0832 0.25462,-0.15468 0.59998,-0.2744 0.93144,-0.32286 0.11762,-0.0172 0.17433,-0.0347 0.17433,-0.0538 0,-0.0156 0.0454,-0.11788 0.10094,-0.22733 0.0854,-0.16845 0.13551,-0.23375 0.32599,-0.42502 0.38624,-0.38787 0.80956,-0.61498 1.42749,-0.76583 0.37106,-0.0906 0.61432,-0.11828 1.03137,-0.11742 1.42788,0.003 2.62608,0.67371 2.8789,1.61158 0.0511,0.18967 0.0476,0.51955 -0.008,0.70602 l -0.0413,0.13954 0.26836,-0.0905 c 0.70106,-0.23642 1.48253,-0.28019 2.23645,-0.12528 0.98331,0.20205 1.71831,0.74016 1.86778,1.3675 0.0307,0.12848 0.0315,0.40175 0.002,0.50359 -0.0343,0.11734 -0.0307,0.12191 0.11171,0.1377 0.37385,0.0414 0.8772,0.189 1.25519,0.36784 0.68382,0.32354 1.21217,0.82217 1.48638,1.40279 0.42246,0.89448 0.21146,1.87905 -0.56325,2.6283 -0.43872,0.42431 -0.99612,0.72743 -1.64558,0.89489 -0.13714,0.0354 -0.2547,0.0711 -0.26126,0.0793 -0.49583,0.62564 -0.93713,0.98316 -1.63012,1.32058 -0.97803,0.47622 -2.21849,0.62918 -3.34622,0.41264 -0.42551,-0.0817 -0.96523,-0.26285 -1.32644,-0.4452 l -0.13659,-0.069 -0.22858,0.10854 c -0.55738,0.26467 -1.12215,0.43253 -1.80666,0.53695 -0.23031,0.0351 -0.42238,0.0472 -0.83367,0.0523 -0.29393,0.004 -0.57769,0.003 -0.6306,-0.002 z"
       style="fill:#ffffff;fill-opacity:1;stroke:#000000;stroke-width:4.00000048;stroke-miterlimit:4;stroke-dasharray:none;stroke-opacity:1"
       inkscape:export-filename="/Users/chrisjrn/Desktop/nbp-logo-2"
       inkscape:export-xdpi="187.72"
       inkscape:export-ydpi="187.72" />
    <path
       inkscape:export-ydpi="187.72"
       inkscape:export-xdpi="187.72"
       inkscape:export-filename="/Users/chrisjrn/Desktop/nbp-logo-2"
       sodipodi:nodetypes="csscssssssssssssscsssssssssssscssssssssscssscssssscssscssscc"
       inkscape:connector-curvature="0"
       id="path4285"
       d="m -532.3902,-79.637954 c -0.30464,-0.02728 -1.09653,-0.147906 -1.3761,-0.209687 -1.19168,-0.263381 -2.42813,-0.805189 -3.32698,-1.457882 l -0.21859,-0.158728 -0.22555,0.113593 c -0.55117,0.277552 -1.02037,0.383284 -1.70092,0.383284 -0.55035,0 -0.77361,-0.03412 -1.23382,-0.188614 -0.347,-0.116491 -0.77563,-0.340243 -1.05187,-0.549119 -0.13193,-0.09975 -0.26172,-0.174676 -0.28844,-0.16649 -0.0267,0.0082 -0.21379,0.07432 -0.4157,0.147137 -0.20193,0.07276 -0.55162,0.17108 -0.77709,0.218549 -0.36591,0.07704 -0.48306,0.0865 -1.08993,0.08868 -0.71287,0.0028 -0.9001,-0.01826 -1.48915,-0.164989 -0.8576,-0.213607 -1.59661,-0.618817 -2.17276,-1.191343 -0.44977,-0.44694 -0.74167,-0.934764 -0.89195,-1.490658 -0.0994,-0.367767 -0.0994,-1.024373 -4e-5,-1.392295 0.34155,-1.264319 1.57349,-2.32703 3.11597,-2.687923 l 0.24578,-0.05746 -0.0152,-0.315743 c -0.0269,-0.557424 0.14535,-0.9375 0.63017,-1.390941 0.30326,-0.283608 0.65187,-0.49871 1.09904,-0.678109 0.32917,-0.132058 1.05528,-0.325635 1.22147,-0.325635 0.10759,0 0.10973,0.03384 -0.0297,-0.469494 -0.0824,-0.297638 -0.0899,-0.372166 -0.0922,-0.9228 -10e-4,-0.396475 0.012,-0.659222 0.0405,-0.777101 0.19802,-0.817386 0.53161,-1.431028 1.07393,-1.975508 0.53513,-0.537232 1.1915,-0.887627 1.97512,-1.054357 0.33695,-0.07167 1.04049,-0.08031 1.3923,-0.01706 0.5131,0.09222 1.08862,0.326037 1.52616,0.620023 0.45472,0.305541 1.04302,0.982671 1.26483,1.455831 0.0409,0.08741 0.084,0.159588 0.0955,0.160314 0.0116,5.5e-4 0.11532,-0.05598 0.23064,-0.126036 0.38567,-0.234307 0.90879,-0.415638 1.41087,-0.489044 0.17815,-0.02602 0.26406,-0.05259 0.26406,-0.0815 0,-0.02362 0.0687,-0.178553 0.15289,-0.344353 0.1294,-0.255139 0.20526,-0.354054 0.49378,-0.643774 0.58505,-0.587508 1.22627,-0.931515 2.16226,-1.160019 0.56204,-0.137218 0.93051,-0.17916 1.56223,-0.177855 2.16283,0.0042 3.97777,1.020488 4.36071,2.441096 0.0775,0.287281 0.072,0.786964 -0.0114,1.069409 l -0.0626,0.211365 0.40647,-0.13707 c 1.06193,-0.358101 2.24563,-0.424401 3.3876,-0.189763 1.48945,0.306049 2.60276,1.121144 2.82918,2.071384 0.0464,0.194613 0.0477,0.608523 0.003,0.762803 -0.052,0.177728 -0.0465,0.184637 0.16922,0.208573 0.56628,0.06282 1.32871,0.28628 1.90125,0.55717 1.03579,0.490059 1.83609,1.24534 2.25146,2.124817 0.63989,1.354893 0.32029,2.846243 -0.85317,3.981148 -0.66455,0.642711 -1.50886,1.101848 -2.49259,1.355507 -0.20773,0.05358 -0.38581,0.107628 -0.39574,0.120163 -0.75105,0.947667 -1.4195,1.489193 -2.46917,2.000297 -1.48143,0.721327 -3.36039,0.953025 -5.06859,0.625021 -0.64452,-0.123759 -1.46204,-0.398132 -2.00919,-0.674337 l -0.2069,-0.104442 -0.34622,0.164411 c -0.84427,0.400909 -1.69975,0.655153 -2.73657,0.813332 -0.34888,0.05323 -0.63982,0.07148 -1.26279,0.07922 -0.44521,0.0056 -0.87504,0.0042 -0.95518,-0.0028 z"
       style="fill:#ffffff;fill-opacity:1;stroke:#000000;stroke-width:4.00000048;stroke-miterlimit:4;stroke-dasharray:none;stroke-opacity:1" />
    <path
       sodipodi:nodetypes="scccsccccsccsssscccsssscccscccsscsssccccsccssccsscsssccss"
       inkscape:connector-curvature="0"
       id="path4281"
       d="m -301.28858,-173.43431 c -6.81022,0 -12.42689,5.47068 -12.85103,12.51742 l -0.0787,1.31353 -0.88041,-0.0673 c -1.1321,-0.0861 -2.69091,0.24572 -3.93872,0.83778 -1.21102,0.57463 -3.08908,2.40031 -3.70938,3.60607 l -0.41698,0.81123 -1.08798,-0.5563 c -2.32467,-1.18767 -4.60099,-1.7277 -7.28034,-1.72675 -1.90246,5e-4 -3.33556,0.22746 -5.02387,0.79419 -4.59543,1.54267 -8.15544,5.19425 -9.45062,9.69516 l -0.34213,1.18841 h -1.03397 c -4.93445,0 -9.75402,2.8523 -11.10437,6.57241 -1.02251,2.81696 -0.31742,5.4476 2.10203,7.84615 1.06076,1.05162 1.48141,1.35454 2.755,1.98359 2.21355,1.09329 3.87464,1.48243 6.43975,1.5078 l 2.05655,0.02 1.03962,1.01785 c 1.44098,1.411 3.52506,2.36643 5.16129,2.36643 0.49778,0 0.56178,0.0534 0.99699,0.82831 0.72913,1.29793 2.32305,2.77246 3.75485,3.47434 1.6619,0.81465 2.77465,1.07852 4.59262,1.08798 1.83369,0.0113 3.14255,-0.29275 4.68457,-1.08134 l 1.09083,-0.55822 0.45016,0.53639 c 2.80609,3.34509 6.88588,5.54153 11.27307,6.06825 4.24326,0.50943 9.03174,-0.82933 12.43026,-3.47433 l 0.90792,-0.707 1.39313,0.59708 c 2.76222,1.18478 5.36691,1.66743 8.2963,1.53624 4.74629,-0.21267 8.77276,-1.93203 12.14403,-5.18686 1.02696,-0.99149 2.29975,-2.44912 2.57306,-2.94645 0.0127,-0.0227 0.40321,0.18555 0.86906,0.46153 0.99491,0.58964 3.0511,1.30177 4.37561,1.5154 3.75764,0.60611 7.95439,-0.69557 10.65329,-3.30374 0.53277,-0.51486 1.09458,-1.1063 1.24907,-1.31449 l 0.28147,-0.37813 1.2889,0.44354 c 1.16128,0.39999 1.46087,0.44395 3.01754,0.44353 1.51597,-4.4e-4 1.8697,-0.0492 2.87915,-0.39993 2.78629,-0.96785 4.78003,-2.91214 5.70336,-5.5631 0.47942,-1.37617 0.47682,-3.56279 -0.004,-5.03332 -0.68932,-2.10487 -2.37163,-4.06066 -4.35666,-5.06269 -1.14766,-0.57933 -2.8173,-0.99418 -4.00224,-0.99418 h -0.96001 l -0.3753,-1.51633 c -1.81025,-7.31614 -9.40291,-12.46097 -18.39792,-12.46627 -2.38193,-10e-4 -3.62388,0.14556 -5.73177,0.67857 -0.81603,0.20641 -1.49877,0.35205 -1.51728,0.32316 -0.0178,-0.0289 -0.2893,-0.57084 -0.60181,-1.20452 -0.43201,-0.87598 -0.84587,-1.4286 -1.72391,-2.30581 -1.72557,-1.72389 -3.54722,-2.51901 -5.77442,-2.51901 h -1.03207 l -0.0959,-0.72122 c -0.25666,-1.9348 -1.37244,-4.42785 -2.75405,-6.15259 -2.50389,-3.12565 -6.0138,-4.83335 -9.93302,-4.83335 z"
       style="color:#000000;display:inline;overflow:visible;visibility:visible;opacity:1;fill:#ffffff;fill-opacity:1;fill-rule:nonzero;stroke:#000000;stroke-width:4.00000048;stroke-linecap:butt;stroke-linejoin:miter;stroke-miterlimit:4;stroke-dasharray:none;stroke-dashoffset:0;stroke-opacity:1;marker:none;enable-background:accumulate"
       inkscape:export-filename="/Users/chrisjrn/Desktop/nbp-logo-2"
       inkscape:export-xdpi="187.72"
       inkscape:export-ydpi="187.72" />
    <path
       inkscape:export-ydpi="187.72"
       inkscape:export-xdpi="187.72"
       inkscape:export-filename="/Users/chrisjrn/Desktop/nbp-logo-2"
       style="color:#000000;display:inline;overflow:visible;visibility:visible;opacity:1;fill:#ffffff;fill-opacity:1;fill-rule:nonzero;stroke:#000000;stroke-width:4.00000048;stroke-linecap:butt;stroke-linejoin:miter;stroke-miterlimit:4;stroke-dasharray:none;stroke-dashoffset:0;stroke-opacity:1;marker:none;enable-background:accumulate"
       d="m -483.29976,-178.18302 c -3.40511,0 -6.21344,2.73534 -6.42551,6.25871 l -0.0393,0.65677 -0.44021,-0.0336 c -0.56605,-0.0431 -1.34545,0.12285 -1.96936,0.41888 -0.60551,0.28732 -1.54454,1.20016 -1.85469,1.80304 l -0.20849,0.40561 -0.54399,-0.27815 c -1.16233,-0.59383 -2.30049,-0.86384 -3.64017,-0.86337 -0.95123,2.5e-4 -1.66778,0.11373 -2.51193,0.39709 -2.29772,0.77134 -4.07772,2.59713 -4.72531,4.84759 l -0.17107,0.59421 h -0.51698 c -2.46723,0 -4.87701,1.42614 -5.55219,3.2862 -0.51125,1.40848 -0.15871,2.7238 1.05102,3.92307 0.53038,0.52582 0.7407,0.67727 1.3775,0.9918 1.10677,0.54664 1.93732,0.74121 3.21987,0.7539 l 1.02828,0.01 0.51981,0.50892 c 0.72048,0.7055 1.76253,1.18322 2.58064,1.18322 0.24889,0 0.28089,0.0267 0.4985,0.41415 0.36456,0.64897 1.16152,1.38623 1.87742,1.73717 0.83095,0.40733 1.38733,0.53927 2.29631,0.544 0.91685,0.006 1.57128,-0.14638 2.34228,-0.54068 l 0.54542,-0.27911 0.22508,0.2682 c 1.40305,1.67255 3.44294,2.77076 5.63653,3.03412 2.12164,0.25472 4.51588,-0.41466 6.21514,-1.73716 l 0.45396,-0.3535 0.69656,0.29854 c 1.38111,0.59239 2.68346,0.83371 4.14815,0.76812 2.37315,-0.10633 4.38638,-0.96601 6.07202,-2.59343 0.51348,-0.49574 1.14987,-1.22456 1.28653,-1.47323 0.006,-0.0113 0.2016,0.0928 0.43453,0.23077 0.49745,0.29482 1.52555,0.65088 2.1878,0.7577 1.87882,0.30305 3.9772,-0.34779 5.32665,-1.65187 0.26638,-0.25743 0.54729,-0.55315 0.62453,-0.65725 l 0.14074,-0.18906 0.64445,0.22177 c 0.58064,0.19999 0.73043,0.22197 1.50877,0.22176 0.75798,-2.2e-4 0.93485,-0.0246 1.43957,-0.19996 1.39315,-0.48393 2.39002,-1.45607 2.85168,-2.78155 0.23971,-0.68809 0.23841,-1.7814 -0.002,-2.51666 -0.34466,-1.05243 -1.18582,-2.03033 -2.17833,-2.53135 -0.57383,-0.28966 -1.40865,-0.49709 -2.00112,-0.49709 h -0.48001 l -0.18765,-0.75816 c -0.90512,-3.65808 -4.70145,-6.23049 -9.19896,-6.23314 -1.19096,-7.1e-4 -1.81194,0.0728 -2.86588,0.33928 -0.40802,0.10321 -0.74939,0.17603 -0.75864,0.16159 -0.009,-0.0144 -0.14465,-0.28542 -0.30091,-0.60227 -0.216,-0.43798 -0.42293,-0.71429 -0.86195,-1.1529 -0.86279,-0.86194 -1.77362,-1.25951 -2.88722,-1.25951 h -0.51603 l -0.0479,-0.36061 c -0.12833,-0.9674 -0.68622,-2.21392 -1.37702,-3.07629 -1.25195,-1.56282 -3.0069,-2.41667 -4.96651,-2.41667 z"
       id="path4894"
       inkscape:connector-curvature="0"
       sodipodi:nodetypes="scccsccccsccsssscccsssscccscccsscsssccccsccssccsscsssccss" />
    <g
       style="stroke-width:18.33097076;stroke-miterlimit:4;stroke-dasharray:none"
       id="g4896"
       transform="matrix(0.21820996,0,0,0.21820996,-445.87315,-109.0846)">
      <path
         inkscape:export-ydpi="187.72"
         inkscape:export-xdpi="187.72"
         inkscape:export-filename="/Users/chrisjrn/Desktop/nbp-logo-2"
         sodipodi:nodetypes="csscssssssssssssscsssssssssssscssssssssscssscssssscssscssscc"
         inkscape:connector-curvature="0"
         id="path4898"
         d="m -618.36935,-28.423272 c -1.6609,-0.14878 -5.97823,-0.80638 -7.5025,-1.14323 -6.49697,-1.43593 -13.23811,-4.38986 -18.13859,-7.94834 l -1.19181,-0.86539 -1.22969,0.6193 c -3.00493,1.51324 -5.563,2.08969 -9.27336,2.08969 -3.00049,0 -4.2177,-0.18605 -6.72675,-1.02834 -1.89187,-0.63511 -4.22873,-1.85499 -5.73479,-2.99378 -0.71929,-0.54386 -1.4269,-0.95233 -1.5726,-0.90769 -0.14567,0.0447 -1.16556,0.40514 -2.26638,0.80218 -1.10089,0.3967 -3.00739,0.93274 -4.23668,1.19153 -1.99492,0.41999 -2.63364,0.47158 -5.94224,0.48348 -3.8866,0.0155 -4.90732,-0.0997 -8.11883,-0.89953 -4.67564,-1.1646 -8.70468,-3.3738 -11.84584,-6.49517 -2.45218,-2.43672 -4.0436,-5.09632 -4.86293,-8.12706 -0.54209,-2.00505 -0.54212,-5.58486 -2.5e-4,-7.59075 1.86217,-6.89308 8.5787,-12.68694 16.98825,-14.65453 l 1.33999,-0.31339 -0.0829,-1.72141 c -0.14629,-3.03906 0.7925,-5.11126 3.4357,-7.58339 1.65335,-1.54622 3.55398,-2.71896 5.99194,-3.69704 1.79464,-0.72 5.75336,-1.77535 6.65941,-1.77535 0.5866,0 0.59828,0.18449 -0.16182,-2.559689 -0.44925,-1.62269 -0.48991,-2.02902 -0.50262,-5.03109 -0.009,-2.161559 0.0659,-3.594079 0.22115,-4.236739 1.07958,-4.45636 2.89833,-7.80195 5.85509,-10.77045 2.91746,-2.92895 6.496,-4.8393 10.7683,-5.74833 1.83708,-0.39076 5.67274,-0.43785 7.59081,-0.0932 2.79742,0.50283 5.9351,1.77756 8.3206,3.38038 2.47911,1.66578 5.68652,5.35751 6.89584,7.93716 0.22301,0.47655 0.4577,0.87008 0.52078,0.87403 0.0631,0.003 0.62875,-0.30501 1.25747,-0.68717 2.10266,-1.27741 4.95472,-2.26604 7.69203,-2.66625 0.97128,-0.14195 1.43966,-0.28669 1.43966,-0.44432 0,-0.12889 0.3749,-0.97348 0.83356,-1.87742 0.7055,-1.39102 1.11909,-1.93028 2.69209,-3.50983 3.18967,-3.2031 6.68557,-5.07862 11.7886,-6.32441 3.06422,-0.74811 5.07315,-0.9768 8.51723,-0.96966 11.79177,0.0248 21.68673,5.56368 23.77455,13.3088 0.42251,1.56626 0.39275,4.2905 -0.0624,5.83042 l -0.34116,1.15236 2.2161,-0.74734 c 5.78961,-1.95233 12.24312,-2.31381 18.46916,-1.03457 8.12041,1.66857 14.19018,6.112479 15.4246,11.293159 0.25283,1.061 0.25997,3.317669 0.0155,4.158769 -0.28358,0.96898 -0.25345,1.00666 0.92258,1.13714 3.08736,0.34265 7.24411,1.56079 10.36561,3.0377 5.64711,2.67181 10.01032,6.78958 12.27487,11.58447 3.48872,7.38683 1.74629,15.51765 -4.65142,21.70514 -3.62314,3.50403 -8.22626,6.00725 -13.58957,7.3902 -1.13254,0.29196 -2.10342,0.58681 -2.15755,0.65514 -4.0947,5.16667 -7.73909,8.11905 -13.4619,10.90556 -8.07671,3.93266 -18.32078,5.1959 -27.63387,3.40763 -3.51391,-0.67472 -7.97101,-2.17063 -10.95408,-3.67648 l -1.12797,-0.56942 -1.88764,0.89636 c -4.60293,2.18575 -9.26699,3.57189 -14.91975,4.43427 -1.90202,0.2901 -3.48822,0.38974 -6.88469,0.43189 -2.42725,0.0311 -4.77069,0.0249 -5.20761,-0.0155 z"
         style="fill:#ffffff;fill-opacity:1;stroke:#000000;stroke-width:18.33097076;stroke-miterlimit:4;stroke-dasharray:none;stroke-opacity:1" />
    </g>
    <path
       sodipodi:nodetypes="csscssssssssssssscsssssssssssscssssssssscssscssssscssscssscc"
       inkscape:connector-curvature="0"
       id="path4214"
       d="m -150.15129,-89.819304 c -0.25719,-0.023 -0.9257,-0.12486 -1.16172,-0.17702 -1.00602,-0.22235 -2.04984,-0.67975 -2.80866,-1.23076 l -0.18454,-0.134 -0.19041,0.0959 c -0.4653,0.23431 -0.8614,0.32357 -1.43593,0.32357 -0.4646,0 -0.65308,-0.0288 -1.04159,-0.15923 -0.29295,-0.0983 -0.65479,-0.28724 -0.888,-0.46356 -0.11138,-0.0842 -0.22095,-0.14747 -0.24351,-0.14056 -0.0226,0.007 -0.18047,0.0628 -0.35094,0.12421 -0.17046,0.0614 -0.46567,0.14444 -0.65602,0.18451 -0.3089,0.065 -0.4078,0.0731 -0.92012,0.0748 -0.60182,0.002 -0.75986,-0.0154 -1.25715,-0.13929 -0.72399,-0.18034 -1.34787,-0.52242 -1.83426,-1.00574 -0.37971,-0.37732 -0.62612,-0.78914 -0.75299,-1.25843 -0.0839,-0.31047 -0.084,-0.86478 -5e-5,-1.17538 0.28835,-1.06735 1.32837,-1.9645 2.63054,-2.26917 l 0.20749,-0.0485 -0.0128,-0.26656 c -0.0226,-0.47057 0.12272,-0.79144 0.53201,-1.17423 0.256,-0.23943 0.5503,-0.42102 0.9278,-0.57247 0.2779,-0.11149 0.89088,-0.2749 1.03118,-0.2749 0.0908,0 0.0926,0.0286 -0.025,-0.39636 -0.0696,-0.251256 -0.0759,-0.314176 -0.0778,-0.779026 -0.001,-0.33471 0.0102,-0.55652 0.0343,-0.65603 0.16716,-0.69004 0.44878,-1.20809 0.90662,-1.66774 0.45175,-0.45354 1.00587,-0.74934 1.66741,-0.8901 0.28446,-0.0605 0.87839,-0.0678 1.17539,-0.0145 0.43316,0.0778 0.91902,0.27524 1.28839,0.52342 0.38388,0.25794 0.88053,0.82958 1.06779,1.22903 0.0346,0.0738 0.0709,0.13472 0.0806,0.13534 0.01,5.2e-4 0.0974,-0.0472 0.19471,-0.10641 0.32559,-0.1978 0.76722,-0.35088 1.19107,-0.41285 0.1504,-0.022 0.22292,-0.0444 0.22292,-0.0688 0,-0.0199 0.058,-0.15074 0.12908,-0.2907 0.10924,-0.2154 0.17328,-0.2989 0.41685,-0.54349 0.4939,-0.49598 1.03522,-0.78639 1.82539,-0.97929 0.47449,-0.11584 0.78555,-0.15125 1.31885,-0.15015 1.82588,0.004 3.35806,0.8615 3.68135,2.06079 0.0654,0.24253 0.0608,0.66436 -0.01,0.90281 l -0.0528,0.17843 0.34316,-0.11572 c 0.89648,-0.30231 1.89577,-0.35828 2.85984,-0.1602 1.25739,0.25837 2.19726,0.94648 2.3884,1.748676 0.0392,0.16429 0.0403,0.51373 0.002,0.64396 -0.0439,0.15004 -0.0392,0.15588 0.14285,0.17608 0.47806,0.053 1.12171,0.24168 1.60506,0.47037 0.87442,0.41372 1.55004,1.05133 1.90069,1.79379 0.54021,1.14381 0.2704,2.40281 -0.72025,3.36091 -0.56101,0.54258 -1.27378,0.93019 -2.10427,1.14433 -0.17536,0.0452 -0.32569,0.0909 -0.33408,0.10144 -0.63403,0.80003 -1.19834,1.25719 -2.08449,1.68867 -1.25064,0.60895 -2.83687,0.80455 -4.27894,0.52765 -0.54411,-0.10448 -1.23427,-0.33612 -1.69617,-0.56929 l -0.17466,-0.0882 -0.29229,0.13879 c -0.71274,0.33845 -1.43494,0.55309 -2.31024,0.68662 -0.29451,0.0449 -0.54012,0.0604 -1.06605,0.0669 -0.37585,0.005 -0.73871,0.004 -0.80637,-0.002 z"
       style="fill:#ffffff;fill-opacity:1;stroke:#000000;stroke-width:4.00000048;stroke-miterlimit:4;stroke-dasharray:none;stroke-opacity:1"
       inkscape:export-filename="/Users/chrisjrn/Desktop/nbp-logo-2"
       inkscape:export-xdpi="187.72"
       inkscape:export-ydpi="187.72" />
    <path
       inkscape:export-ydpi="187.72"
       inkscape:export-xdpi="187.72"
       inkscape:export-filename="/Users/chrisjrn/Desktop/nbp-logo-2"
       style="fill:#ffffff;fill-opacity:1;stroke:#000000;stroke-width:4.00000048;stroke-miterlimit:4;stroke-dasharray:none;stroke-opacity:1"
       d="m 79.780912,-147.80482 c -0.20113,-0.018 -0.72392,-0.0976 -0.90849,-0.13844 -0.78673,-0.17388 -1.60302,-0.53158 -2.19643,-0.96248 l -0.14432,-0.1048 -0.1489,0.075 c -0.36388,0.18324 -0.67364,0.25304 -1.12293,0.25304 -0.36333,0 -0.51072,-0.0225 -0.81455,-0.12452 -0.22909,-0.0769 -0.51206,-0.22463 -0.69443,-0.36252 -0.0871,-0.0659 -0.17279,-0.11532 -0.19043,-0.10992 -0.0177,0.006 -0.14113,0.0491 -0.27445,0.0971 -0.1333,0.048 -0.36416,0.11296 -0.51302,0.14429 -0.24156,0.0508 -0.31891,0.0572 -0.71955,0.0585 -0.47064,0.002 -0.59423,-0.012 -0.98312,-0.10893 -0.56618,-0.14103 -1.05407,-0.40855 -1.43443,-0.78652 -0.29694,-0.29507 -0.48964,-0.61712 -0.58886,-0.98411 -0.0656,-0.24279 -0.0657,-0.67628 -4e-5,-0.91917 0.2255,-0.8347 1.03882,-1.53629 2.05714,-1.77454 l 0.16227,-0.0379 -0.01,-0.20846 c -0.0177,-0.368 0.096,-0.61892 0.41604,-0.91827 0.2002,-0.18724 0.43035,-0.32925 0.72556,-0.44769 0.21732,-0.0872 0.69669,-0.21498 0.8064,-0.21498 0.071,0 0.0724,0.0224 -0.0195,-0.30996 -0.0544,-0.19649 -0.0593,-0.24569 -0.0608,-0.60922 -7.8e-4,-0.26175 0.008,-0.43521 0.0268,-0.51303 0.13072,-0.53962 0.35095,-0.94475 0.70899,-1.30421 0.35328,-0.35467 0.78661,-0.586 1.30395,-0.69607 0.22246,-0.0473 0.68692,-0.053 0.91918,-0.0113 0.33874,0.0608 0.7187,0.21524 1.00755,0.40932 0.30021,0.20172 0.6886,0.64875 0.83504,0.96113 0.0271,0.0577 0.0554,0.10535 0.063,0.10584 0.008,4.1e-4 0.0762,-0.0369 0.15227,-0.0832 0.25462,-0.15468 0.59998,-0.2744 0.93144,-0.32286 0.11762,-0.0172 0.17433,-0.0347 0.17433,-0.0538 0,-0.0156 0.0454,-0.11788 0.10094,-0.22733 0.0854,-0.16845 0.13551,-0.23375 0.32599,-0.42502 0.38624,-0.38787 0.80956,-0.61498 1.42749,-0.76583 0.37106,-0.0906 0.61432,-0.11828 1.03137,-0.11742 1.42788,0.003 2.62608,0.67371 2.8789,1.61158 0.0511,0.18967 0.0476,0.51955 -0.008,0.70602 l -0.0413,0.13954 0.26836,-0.0905 c 0.70106,-0.23642 1.48253,-0.28019 2.23645,-0.12528 0.98331,0.20205 1.71831,0.74016 1.86778,1.3675 0.0307,0.12848 0.0315,0.40175 0.002,0.50359 -0.0343,0.11734 -0.0307,0.12191 0.11171,0.1377 0.37385,0.0414 0.8772,0.189 1.25519,0.36784 0.68382,0.32354 1.21217,0.82217 1.48638,1.40279 0.42246,0.89448 0.21146,1.87905 -0.56325,2.6283 -0.43872,0.42431 -0.99612,0.72743 -1.64558,0.89489 -0.13714,0.0354 -0.2547,0.0711 -0.26126,0.0793 -0.49583,0.62564 -0.93713,0.98316 -1.63012,1.32058 -0.97803,0.47622 -2.21849,0.62918 -3.34622,0.41264 -0.42551,-0.0817 -0.96523,-0.26285 -1.32644,-0.4452 l -0.13659,-0.069 -0.22858,0.10854 c -0.55738,0.26467 -1.12215,0.43253 -1.80666,0.53695 -0.23031,0.0351 -0.42238,0.0472 -0.83367,0.0523 -0.29393,0.004 -0.57769,0.003 -0.6306,-0.002 z"
       id="path4216"
       inkscape:connector-curvature="0"
       sodipodi:nodetypes="csscssssssssssssscsssssssssssscssssssssscssscssssscssscssscc" />
    <path
       style="fill:#ffffff;fill-opacity:1;stroke:#000000;stroke-width:4.00000048;stroke-miterlimit:4;stroke-dasharray:none;stroke-opacity:1"
       d="m -36.378803,-132.2759 c -0.30464,-0.0273 -1.09653,-0.1479 -1.3761,-0.20969 -1.19168,-0.26338 -2.42813,-0.80518 -3.32698,-1.45788 l -0.21859,-0.15873 -0.22555,0.1136 c -0.55117,0.27755 -1.02037,0.38328 -1.70092,0.38328 -0.55035,0 -0.77361,-0.0341 -1.23382,-0.18861 -0.347,-0.11649 -0.77563,-0.34025 -1.05187,-0.54912 -0.13193,-0.0998 -0.26172,-0.17468 -0.28844,-0.16649 -0.0267,0.008 -0.21379,0.0743 -0.4157,0.14714 -0.20193,0.0728 -0.55162,0.17108 -0.77709,0.21854 -0.36591,0.077 -0.48306,0.0865 -1.08993,0.0887 -0.71287,0.003 -0.9001,-0.0183 -1.48915,-0.16498 -0.8576,-0.21361 -1.59661,-0.61882 -2.17276,-1.19135 -0.44977,-0.44694 -0.74167,-0.93476 -0.89195,-1.49066 -0.0994,-0.36776 -0.0994,-1.02437 -4e-5,-1.39229 0.34155,-1.26432 1.57349,-2.32703 3.11597,-2.68792 l 0.24578,-0.0575 -0.0152,-0.31575 c -0.0269,-0.55742 0.14535,-0.9375 0.63017,-1.39094 0.30326,-0.28361 0.65187,-0.49871 1.09904,-0.67811 0.32917,-0.13205 1.05528,-0.32563 1.22147,-0.32563 0.10759,0 0.10973,0.0338 -0.0297,-0.4695 -0.0824,-0.29763 -0.0899,-0.37216 -0.0922,-0.9228 -10e-4,-0.39647 0.012,-0.65922 0.0405,-0.7771 0.19802,-0.81738 0.53161,-1.43102 1.07393,-1.9755 0.53513,-0.53724 1.1915,-0.88763 1.97512,-1.05436 0.33695,-0.0717 1.04049,-0.0803 1.3923,-0.0171 0.5131,0.0922 1.08862,0.32604 1.52616,0.62002 0.45472,0.30554 1.04302,0.98267 1.26483,1.45583 0.0409,0.0874 0.084,0.15959 0.0955,0.16032 0.0116,5.5e-4 0.11532,-0.056 0.23064,-0.12604 0.38567,-0.23431 0.90879,-0.41564 1.41087,-0.48904 0.17815,-0.026 0.26406,-0.0526 0.26406,-0.0815 0,-0.0236 0.0687,-0.17856 0.15289,-0.34436 0.1294,-0.25514 0.20526,-0.35405 0.49378,-0.64377 0.58505,-0.58751 1.22627,-0.93152 2.16226,-1.16002 0.56204,-0.13722 0.93051,-0.17916 1.56223,-0.17785 2.16283,0.004 3.97777,1.02048 4.36071,2.44109 0.0775,0.28728 0.072,0.78697 -0.0114,1.06941 l -0.0626,0.21137 0.40647,-0.13707 c 1.06193,-0.35811 2.24563,-0.42441 3.3876,-0.18977 1.48945,0.30605 2.60276,1.12115 2.82918,2.07139 0.0464,0.19461 0.0477,0.60852 0.003,0.7628 -0.052,0.17773 -0.0465,0.18464 0.16922,0.20857 0.56628,0.0628 1.32871,0.28628 1.90125,0.55717 1.03579,0.49006 1.83609,1.24534 2.25146,2.12482 0.63989,1.35489 0.32029,2.84624 -0.85317,3.98115 -0.66455,0.64271 -1.50886,1.10185 -2.49259,1.3555 -0.20773,0.0536 -0.38581,0.10763 -0.39574,0.12017 -0.75105,0.94766 -1.4195,1.48919 -2.46917,2.00029 -1.48143,0.72133 -3.36039,0.95303 -5.06859,0.62503 -0.64452,-0.12376 -1.46204,-0.39814 -2.00919,-0.67434 l -0.2069,-0.10444 -0.34622,0.16441 c -0.84427,0.40091 -1.69975,0.65515 -2.73657,0.81333 -0.34888,0.0532 -0.63982,0.0715 -1.26279,0.0792 -0.44521,0.006 -0.87504,0.004 -0.95518,-0.003 z"
       id="path4218"
       inkscape:connector-curvature="0"
       sodipodi:nodetypes="csscssssssssssssscsssssssssssscssssssssscssscssssscssscssscc"
       inkscape:export-filename="/Users/chrisjrn/Desktop/nbp-logo-2"
       inkscape:export-xdpi="187.72"
       inkscape:export-ydpi="187.72" />
    <path
       inkscape:export-ydpi="187.72"
       inkscape:export-xdpi="187.72"
       inkscape:export-filename="/Users/chrisjrn/Desktop/nbp-logo-2"
       style="color:#000000;display:inline;overflow:visible;visibility:visible;opacity:1;fill:#ffffff;fill-opacity:1;fill-rule:nonzero;stroke:#000000;stroke-width:4.00000048;stroke-linecap:butt;stroke-linejoin:miter;stroke-miterlimit:4;stroke-dasharray:none;stroke-dashoffset:0;stroke-opacity:1;marker:none;enable-background:accumulate"
       d="m 261.53252,-136.99266 c -6.81022,0 -12.42689,5.47068 -12.85103,12.51742 l -0.0787,1.31353 -0.88041,-0.0673 c -1.1321,-0.0861 -2.69091,0.24572 -3.93872,0.83778 -1.21102,0.57463 -3.08908,2.40031 -3.70938,3.60607 l -0.41698,0.81123 -1.08798,-0.5563 c -2.32467,-1.18767 -4.60099,-1.7277 -7.28034,-1.72675 -1.90246,5e-4 -3.33556,0.22746 -5.02387,0.79419 -4.59543,1.54267 -8.15544,5.19425 -9.45062,9.69516 l -0.34213,1.18841 h -1.03397 c -4.93445,0 -9.75402,2.8523 -11.10437,6.57241 -1.02251,2.816964 -0.31742,5.447604 2.10203,7.846154 1.06076,1.05162 1.48141,1.35454 2.755,1.98359 2.21355,1.09329 3.87464,1.48243 6.43975,1.5078 l 2.05655,0.02 1.03962,1.01785 c 1.44098,1.411 3.52506,2.36643 5.16129,2.36643 0.49778,0 0.56178,0.0534 0.99699,0.82831 0.72913,1.29793 2.32305,2.77246 3.75485,3.47434 1.6619,0.81465 2.77465,1.07852 4.59262,1.08798 1.83369,0.0113 3.14255,-0.29275 4.68457,-1.08134 l 1.09083,-0.55822 0.45016,0.53639 c 2.80609,3.34509 6.88588,5.54153 11.27307,6.06825 4.24326,0.50943 9.03174,-0.82933 12.43026,-3.47433 l 0.90792,-0.707 1.39313,0.59708 c 2.76222,1.18478 5.36691,1.66743 8.2963,1.53624 4.74629,-0.21267 8.77276,-1.93203 12.14403,-5.18686 1.02696,-0.99149 2.29975,-2.44912 2.57306,-2.94645 0.0127,-0.0227 0.40321,0.18555 0.86906,0.46153 0.99491,0.58964 3.0511,1.30177 4.37561,1.5154 3.75764,0.60611 7.95439,-0.69557 10.65329,-3.30374 0.53277,-0.51486 1.09458,-1.1063 1.24907,-1.31449 l 0.28147,-0.37813 1.2889,0.44354 c 1.16128,0.39999 1.46087,0.44395 3.01754,0.44353 1.51597,-4.4e-4 1.8697,-0.0492 2.87915,-0.39993 2.78629,-0.96785 4.78003,-2.91214 5.70336,-5.5631 0.47942,-1.37617 0.47682,-3.56279 -0.004,-5.033324 -0.68932,-2.10487 -2.37163,-4.06066 -4.35666,-5.06269 -1.14766,-0.57933 -2.8173,-0.99418 -4.00224,-0.99418 h -0.96001 l -0.3753,-1.51633 c -1.81025,-7.31614 -9.40291,-12.46097 -18.39792,-12.46627 -2.38193,-0.001 -3.62388,0.14556 -5.73177,0.67857 -0.81603,0.20641 -1.49877,0.35205 -1.51728,0.32316 -0.0178,-0.0289 -0.2893,-0.57084 -0.60181,-1.20452 -0.43201,-0.87598 -0.84587,-1.4286 -1.72391,-2.30581 -1.72557,-1.72389 -3.54722,-2.51901 -5.77442,-2.51901 h -1.03207 l -0.0959,-0.72122 c -0.25666,-1.9348 -1.37244,-4.42785 -2.75405,-6.15259 -2.50389,-3.12565 -6.0138,-4.83335 -9.93302,-4.83335 z"
       id="path4220"
       inkscape:connector-curvature="0"
       sodipodi:nodetypes="scccsccccsccsssscccsssscccscccsscsssccccsccssccsscsssccss" />
    <path
       sodipodi:nodetypes="scccsccccsccsssscccsssscccscccsscsssccccsccssccsscsssccss"
       inkscape:connector-curvature="0"
       id="path4222"
       d="m 59.275972,-159.96219 c -3.40511,0 -6.21344,2.73534 -6.42551,6.25871 l -0.0393,0.65677 -0.44021,-0.0336 c -0.56605,-0.0431 -1.34545,0.12285 -1.96936,0.41888 -0.60551,0.28732 -1.54454,1.20016 -1.85469,1.80304 l -0.20849,0.40561 -0.54399,-0.27815 c -1.16233,-0.59383 -2.30049,-0.86384 -3.64017,-0.86337 -0.95123,2.5e-4 -1.66778,0.11373 -2.51193,0.39709 -2.29772,0.77134 -4.07772,2.59713 -4.72531,4.84759 l -0.17107,0.59421 h -0.51698 c -2.46723,0 -4.87701,1.42614 -5.55219,3.2862 -0.51125,1.40848 -0.15871,2.7238 1.05102,3.92307 0.53038,0.52582 0.7407,0.67727 1.3775,0.9918 1.10677,0.54664 1.93732,0.74121 3.21987,0.7539 l 1.02828,0.01 0.51981,0.50892 c 0.72048,0.7055 1.76253,1.18322 2.58064,1.18322 0.24889,0 0.28089,0.0267 0.4985,0.41415 0.36456,0.64897 1.16152,1.38623 1.87742,1.73717 0.83095,0.40733 1.38733,0.53927 2.29631,0.544 0.91685,0.006 1.57128,-0.14638 2.34228,-0.54068 l 0.54542,-0.27911 0.22508,0.2682 c 1.40305,1.67255 3.44294,2.77076 5.63653,3.03412 2.12164,0.25472 4.51588,-0.41466 6.21514,-1.73716 l 0.45396,-0.3535 0.69656,0.29854 c 1.38111,0.59239 2.68346,0.83371 4.14815,0.76812 2.37315,-0.10633 4.38638,-0.96601 6.07202,-2.59343 0.51348,-0.49574 1.14987,-1.22456 1.28653,-1.47323 0.006,-0.0113 0.2016,0.0928 0.43453,0.23077 0.49745,0.29482 1.52555,0.65088 2.1878,0.7577 1.87882,0.30305 3.9772,-0.34779 5.32665,-1.65187 0.26638,-0.25743 0.54729,-0.55315 0.62453,-0.65725 l 0.14074,-0.18906 0.64445,0.22177 c 0.58064,0.19999 0.73043,0.22197 1.50877,0.22176 0.75798,-2.2e-4 0.93485,-0.0246 1.43957,-0.19996 1.39315,-0.48393 2.39002,-1.45607 2.85168,-2.78155 0.23971,-0.68809 0.23841,-1.7814 -0.002,-2.51666 -0.34466,-1.05243 -1.18582,-2.03033 -2.17833,-2.53135 -0.57383,-0.28966 -1.40865,-0.49709 -2.00112,-0.49709 h -0.48001 l -0.18765,-0.75816 c -0.90512,-3.65808 -4.70145,-6.23049 -9.19896,-6.23314 -1.19096,-7.1e-4 -1.81194,0.0728 -2.86588,0.33928 -0.40802,0.10321 -0.74939,0.17603 -0.75864,0.16159 -0.009,-0.0144 -0.14465,-0.28542 -0.30091,-0.60227 -0.216,-0.43798 -0.42293,-0.71429 -0.86195,-1.1529 -0.86279,-0.86194 -1.77362,-1.25951 -2.88722,-1.25951 h -0.51603 l -0.0479,-0.36061 c -0.12833,-0.9674 -0.68622,-2.21392 -1.37702,-3.07629 -1.25195,-1.56282 -3.0069,-2.41667 -4.96651,-2.41667 z"
       style="color:#000000;display:inline;overflow:visible;visibility:visible;opacity:1;fill:#ffffff;fill-opacity:1;fill-rule:nonzero;stroke:#000000;stroke-width:4.00000048;stroke-linecap:butt;stroke-linejoin:miter;stroke-miterlimit:4;stroke-dasharray:none;stroke-dashoffset:0;stroke-opacity:1;marker:none;enable-background:accumulate"
       inkscape:export-filename="/Users/chrisjrn/Desktop/nbp-logo-2"
       inkscape:export-xdpi="187.72"
       inkscape:export-ydpi="187.72" />
    <g
       transform="matrix(0.21820996,0,0,0.21820996,-30.843206,-84.790164)"
       id="g4224"
       style="stroke-width:18.33097076;stroke-miterlimit:4;stroke-dasharray:none">
      <path
         style="fill:#ffffff;fill-opacity:1;stroke:#000000;stroke-width:18.33097076;stroke-miterlimit:4;stroke-dasharray:none;stroke-opacity:1"
         d="m -618.36935,-28.423272 c -1.6609,-0.14878 -5.97823,-0.80638 -7.5025,-1.14323 -6.49697,-1.43593 -13.23811,-4.38986 -18.13859,-7.94834 l -1.19181,-0.86539 -1.22969,0.6193 c -3.00493,1.51324 -5.563,2.08969 -9.27336,2.08969 -3.00049,0 -4.2177,-0.18605 -6.72675,-1.02834 -1.89187,-0.63511 -4.22873,-1.85499 -5.73479,-2.99378 -0.71929,-0.54386 -1.4269,-0.95233 -1.5726,-0.90769 -0.14567,0.0447 -1.16556,0.40514 -2.26638,0.80218 -1.10089,0.3967 -3.00739,0.93274 -4.23668,1.19153 -1.99492,0.41999 -2.63364,0.47158 -5.94224,0.48348 -3.8866,0.0155 -4.90732,-0.0997 -8.11883,-0.89953 -4.67564,-1.1646 -8.70468,-3.3738 -11.84584,-6.49517 -2.45218,-2.43672 -4.0436,-5.09632 -4.86293,-8.12706 -0.54209,-2.00505 -0.54212,-5.58486 -2.5e-4,-7.59075 1.86217,-6.89308 8.5787,-12.68694 16.98825,-14.65453 l 1.33999,-0.31339 -0.0829,-1.72141 c -0.14629,-3.03906 0.7925,-5.11126 3.4357,-7.58339 1.65335,-1.54622 3.55398,-2.71896 5.99194,-3.69704 1.79464,-0.72 5.75336,-1.77535 6.65941,-1.77535 0.5866,0 0.59828,0.18449 -0.16182,-2.559689 -0.44925,-1.62269 -0.48991,-2.02902 -0.50262,-5.03109 -0.009,-2.161559 0.0659,-3.594079 0.22115,-4.236739 1.07958,-4.45636 2.89833,-7.80195 5.85509,-10.77045 2.91746,-2.92895 6.496,-4.8393 10.7683,-5.74833 1.83708,-0.39076 5.67274,-0.43785 7.59081,-0.0932 2.79742,0.50283 5.9351,1.77756 8.3206,3.38038 2.47911,1.66578 5.68652,5.35751 6.89584,7.93716 0.22301,0.47655 0.4577,0.87008 0.52078,0.87403 0.0631,0.003 0.62875,-0.30501 1.25747,-0.68717 2.10266,-1.27741 4.95472,-2.26604 7.69203,-2.66625 0.97128,-0.14195 1.43966,-0.28669 1.43966,-0.44432 0,-0.12889 0.3749,-0.97348 0.83356,-1.87742 0.7055,-1.39102 1.11909,-1.93028 2.69209,-3.50983 3.18967,-3.2031 6.68557,-5.07862 11.7886,-6.32441 3.06422,-0.74811 5.07315,-0.9768 8.51723,-0.96966 11.79177,0.0248 21.68673,5.56368 23.77455,13.3088 0.42251,1.56626 0.39275,4.2905 -0.0624,5.83042 l -0.34116,1.15236 2.2161,-0.74734 c 5.78961,-1.95233 12.24312,-2.31381 18.46916,-1.03457 8.12041,1.66857 14.19018,6.112479 15.4246,11.293159 0.25283,1.061 0.25997,3.317669 0.0155,4.158769 -0.28358,0.96898 -0.25345,1.00666 0.92258,1.13714 3.08736,0.34265 7.24411,1.56079 10.36561,3.0377 5.64711,2.67181 10.01032,6.78958 12.27487,11.58447 3.48872,7.38683 1.74629,15.51765 -4.65142,21.70514 -3.62314,3.50403 -8.22626,6.00725 -13.58957,7.3902 -1.13254,0.29196 -2.10342,0.58681 -2.15755,0.65514 -4.0947,5.16667 -7.73909,8.11905 -13.4619,10.90556 -8.07671,3.93266 -18.32078,5.1959 -27.63387,3.40763 -3.51391,-0.67472 -7.97101,-2.17063 -10.95408,-3.67648 l -1.12797,-0.56942 -1.88764,0.89636 c -4.60293,2.18575 -9.26699,3.57189 -14.91975,4.43427 -1.90202,0.2901 -3.48822,0.38974 -6.88469,0.43189 -2.42725,0.0311 -4.77069,0.0249 -5.20761,-0.0155 z"
         id="path4226"
         inkscape:connector-curvature="0"
         sodipodi:nodetypes="csscssssssssssssscsssssssssssscssssssssscssscssssscssscssscc"
         inkscape:export-filename="/Users/chrisjrn/Desktop/nbp-logo-2"
         inkscape:export-xdpi="187.72"
         inkscape:export-ydpi="187.72" />
    </g>
    <path
       inkscape:export-ydpi="187.72"
       inkscape:export-xdpi="187.72"
       inkscape:export-filename="/Users/chrisjrn/Desktop/nbp-logo-2"
       style="fill:#ffffff;fill-opacity:1;stroke:#000000;stroke-width:4.00000048;stroke-miterlimit:4;stroke-dasharray:none;stroke-opacity:1"
       d="m 414.69435,-146.50632 c -0.25719,-0.023 -0.9257,-0.12486 -1.16172,-0.17702 -1.00602,-0.22235 -2.04984,-0.67975 -2.80866,-1.23076 l -0.18454,-0.134 -0.19041,0.0959 c -0.4653,0.23431 -0.8614,0.32357 -1.43593,0.32357 -0.4646,0 -0.65308,-0.0288 -1.04159,-0.15923 -0.29295,-0.0983 -0.65479,-0.28724 -0.888,-0.46356 -0.11138,-0.0842 -0.22095,-0.14747 -0.24351,-0.14056 -0.0226,0.007 -0.18047,0.0628 -0.35094,0.12421 -0.17046,0.0614 -0.46567,0.14444 -0.65602,0.18451 -0.3089,0.065 -0.4078,0.0731 -0.92012,0.0748 -0.60182,0.002 -0.75986,-0.0154 -1.25715,-0.13929 -0.72399,-0.18034 -1.34787,-0.52242 -1.83426,-1.00574 -0.37971,-0.37732 -0.62612,-0.78914 -0.75299,-1.25843 -0.0839,-0.31047 -0.084,-0.86478 -5e-5,-1.17538 0.28835,-1.06735 1.32837,-1.9645 2.63054,-2.26917 l 0.20749,-0.0485 -0.0128,-0.26656 c -0.0226,-0.47057 0.12272,-0.79144 0.53201,-1.17423 0.256,-0.23943 0.5503,-0.42102 0.9278,-0.57247 0.2779,-0.11149 0.89088,-0.2749 1.03118,-0.2749 0.0908,0 0.0926,0.0286 -0.025,-0.39636 -0.0696,-0.25126 -0.0759,-0.31418 -0.0778,-0.77903 -10e-4,-0.33471 0.0102,-0.55652 0.0343,-0.65603 0.16716,-0.69004 0.44878,-1.20809 0.90662,-1.66774 0.45175,-0.45354 1.00587,-0.74934 1.66741,-0.8901 0.28446,-0.0605 0.87839,-0.0678 1.17539,-0.0145 0.43316,0.0778 0.91902,0.27524 1.28839,0.52342 0.38388,0.25794 0.88053,0.82958 1.06779,1.22903 0.0346,0.0738 0.0709,0.13472 0.0806,0.13534 0.01,5.2e-4 0.0974,-0.0472 0.19471,-0.10641 0.32559,-0.1978 0.76722,-0.35088 1.19107,-0.41285 0.1504,-0.022 0.22292,-0.0444 0.22292,-0.0688 0,-0.0199 0.058,-0.15074 0.12908,-0.2907 0.10924,-0.2154 0.17328,-0.2989 0.41685,-0.54349 0.4939,-0.49598 1.03522,-0.78639 1.82539,-0.97929 0.47449,-0.11584 0.78555,-0.15125 1.31885,-0.15015 1.82588,0.004 3.35806,0.8615 3.68135,2.06079 0.0654,0.24253 0.0608,0.66436 -0.01,0.90281 l -0.0528,0.17843 0.34316,-0.11572 c 0.89648,-0.30231 1.89577,-0.35828 2.85984,-0.1602 1.25739,0.25837 2.19726,0.94648 2.3884,1.74868 0.0392,0.16429 0.0403,0.51373 0.002,0.64396 -0.0439,0.15004 -0.0392,0.15588 0.14285,0.17608 0.47806,0.053 1.12171,0.24168 1.60506,0.47037 0.87442,0.41372 1.55004,1.05133 1.90069,1.79379 0.54021,1.14381 0.2704,2.40281 -0.72025,3.36091 -0.56101,0.54258 -1.27378,0.93019 -2.10427,1.14433 -0.17536,0.0452 -0.32569,0.0909 -0.33408,0.10144 -0.63403,0.80003 -1.19834,1.25719 -2.08449,1.68867 -1.25064,0.60895 -2.83687,0.80455 -4.27894,0.52765 -0.54411,-0.10448 -1.23427,-0.33612 -1.69617,-0.56929 l -0.17466,-0.0882 -0.29229,0.13879 c -0.71274,0.33845 -1.43494,0.55309 -2.31024,0.68662 -0.29451,0.0449 -0.54012,0.0604 -1.06605,0.0669 -0.37585,0.005 -0.73871,0.004 -0.80637,-0.002 z"
       id="path4228"
       inkscape:connector-curvature="0"
       sodipodi:nodetypes="csscssssssssssssscsssssssssssscssssssssscssscssssscssscssscc" />
    <path
       sodipodi:nodetypes="csscssssssssssssscsssssssssssscssssssssscssscssssscssscssscc"
       inkscape:connector-curvature="0"
       id="path4230"
       d="m 626.40572,-137.68214 c -0.20113,-0.018 -0.72392,-0.0976 -0.90849,-0.13844 -0.78673,-0.17388 -1.60302,-0.53158 -2.19643,-0.96248 l -0.14432,-0.1048 -0.1489,0.075 c -0.36388,0.18324 -0.67364,0.25304 -1.12293,0.25304 -0.36333,0 -0.51072,-0.0225 -0.81455,-0.12452 -0.22909,-0.0769 -0.51206,-0.22463 -0.69443,-0.36252 -0.0871,-0.0659 -0.17279,-0.11532 -0.19043,-0.10992 -0.0177,0.006 -0.14113,0.0491 -0.27445,0.0971 -0.1333,0.048 -0.36416,0.11296 -0.51302,0.14429 -0.24156,0.0508 -0.31891,0.0572 -0.71955,0.0585 -0.47064,0.002 -0.59423,-0.012 -0.98312,-0.10893 -0.56618,-0.14103 -1.05407,-0.40855 -1.43443,-0.78652 -0.29694,-0.29507 -0.48964,-0.61712 -0.58886,-0.98411 -0.0656,-0.24279 -0.0657,-0.67628 -4e-5,-0.91917 0.2255,-0.8347 1.03882,-1.53629 2.05714,-1.77454 l 0.16227,-0.0379 -0.01,-0.20846 c -0.0177,-0.368 0.096,-0.61892 0.41604,-0.91827 0.2002,-0.18724 0.43035,-0.32925 0.72556,-0.44769 0.21732,-0.0872 0.69669,-0.21498 0.8064,-0.21498 0.071,0 0.0724,0.0224 -0.0195,-0.30996 -0.0544,-0.19649 -0.0593,-0.24569 -0.0608,-0.60922 -7.8e-4,-0.26175 0.008,-0.43521 0.0268,-0.51303 0.13072,-0.53962 0.35095,-0.94475 0.70899,-1.30421 0.35328,-0.35467 0.78661,-0.586 1.30395,-0.69607 0.22246,-0.0473 0.68692,-0.053 0.91918,-0.0113 0.33874,0.0608 0.7187,0.21524 1.00755,0.40932 0.30021,0.20172 0.6886,0.64875 0.83504,0.96113 0.0271,0.0577 0.0554,0.10535 0.063,0.10584 0.008,4.1e-4 0.0762,-0.0369 0.15227,-0.0832 0.25462,-0.15468 0.59998,-0.2744 0.93144,-0.32286 0.11762,-0.0172 0.17433,-0.0347 0.17433,-0.0538 0,-0.0156 0.0454,-0.11788 0.10094,-0.22733 0.0854,-0.16845 0.13551,-0.23375 0.32599,-0.42502 0.38624,-0.38787 0.80956,-0.61498 1.42749,-0.76583 0.37106,-0.0906 0.61432,-0.11828 1.03137,-0.11742 1.42788,0.003 2.62608,0.67371 2.8789,1.61158 0.0511,0.18967 0.0476,0.51955 -0.008,0.70602 l -0.0413,0.13954 0.26836,-0.0905 c 0.70106,-0.23642 1.48253,-0.28019 2.23645,-0.12528 0.98331,0.20205 1.71831,0.74016 1.86778,1.3675 0.0307,0.12848 0.0315,0.40175 0.002,0.50359 -0.0343,0.11734 -0.0307,0.12191 0.11171,0.1377 0.37385,0.0414 0.8772,0.189 1.25519,0.36784 0.68382,0.32354 1.21217,0.82217 1.48638,1.40279 0.42246,0.89448 0.21146,1.87905 -0.56325,2.6283 -0.43872,0.42431 -0.99612,0.72743 -1.64558,0.89489 -0.13714,0.0354 -0.2547,0.0711 -0.26126,0.0793 -0.49583,0.62564 -0.93713,0.98316 -1.63012,1.32058 -0.97803,0.47622 -2.21849,0.62918 -3.34622,0.41264 -0.42551,-0.0817 -0.96523,-0.26285 -1.32644,-0.4452 l -0.13659,-0.069 -0.22858,0.10854 c -0.55738,0.26467 -1.12215,0.43253 -1.80666,0.53695 -0.23031,0.0351 -0.42238,0.0472 -0.83367,0.0523 -0.29393,0.004 -0.57769,0.003 -0.6306,-0.002 z"
       style="fill:#ffffff;fill-opacity:1;stroke:#000000;stroke-width:4.00000048;stroke-miterlimit:4;stroke-dasharray:none;stroke-opacity:1"
       inkscape:export-filename="/Users/chrisjrn/Desktop/nbp-logo-2"
       inkscape:export-xdpi="187.72"
       inkscape:export-ydpi="187.72" />
    <path
       inkscape:export-ydpi="187.72"
       inkscape:export-xdpi="187.72"
       inkscape:export-filename="/Users/chrisjrn/Desktop/nbp-logo-2"
       sodipodi:nodetypes="csscssssssssssssscsssssssssssscssssssssscssscssssscssscssscc"
       inkscape:connector-curvature="0"
       id="path4232"
       d="m 469.75528,-79.637954 c -0.30464,-0.02728 -1.09653,-0.147906 -1.3761,-0.209687 -1.19168,-0.263381 -2.42813,-0.805189 -3.32698,-1.457882 l -0.21859,-0.158728 -0.22555,0.113593 c -0.55117,0.277552 -1.02037,0.383284 -1.70092,0.383284 -0.55035,0 -0.77361,-0.03412 -1.23382,-0.188614 -0.347,-0.116491 -0.77563,-0.340243 -1.05187,-0.549119 -0.13193,-0.09975 -0.26172,-0.174676 -0.28844,-0.16649 -0.0267,0.0082 -0.21379,0.07432 -0.4157,0.147137 -0.20193,0.07276 -0.55162,0.17108 -0.77709,0.218549 -0.36591,0.07704 -0.48306,0.0865 -1.08993,0.08868 -0.71287,0.0028 -0.9001,-0.01826 -1.48915,-0.164989 -0.8576,-0.213607 -1.59661,-0.618817 -2.17276,-1.191343 -0.44977,-0.44694 -0.74167,-0.934764 -0.89195,-1.490658 -0.0994,-0.367767 -0.0994,-1.024373 -4e-5,-1.392295 0.34155,-1.264319 1.57349,-2.32703 3.11597,-2.687923 l 0.24578,-0.05746 -0.0152,-0.315743 c -0.0269,-0.557424 0.14535,-0.9375 0.63017,-1.390941 0.30326,-0.283608 0.65187,-0.49871 1.09904,-0.678109 0.32917,-0.132058 1.05528,-0.325635 1.22147,-0.325635 0.10759,0 0.10973,0.03384 -0.0297,-0.469494 -0.0824,-0.297638 -0.0899,-0.372166 -0.0922,-0.9228 -10e-4,-0.396475 0.012,-0.659222 0.0405,-0.777101 0.19802,-0.817386 0.53161,-1.431028 1.07393,-1.975508 0.53513,-0.537232 1.1915,-0.887627 1.97512,-1.054357 0.33695,-0.07167 1.04049,-0.08031 1.3923,-0.01706 0.5131,0.09222 1.08862,0.326037 1.52616,0.620023 0.45472,0.305541 1.04302,0.982671 1.26483,1.455831 0.0409,0.08741 0.084,0.159588 0.0955,0.160314 0.0116,5.5e-4 0.11532,-0.05598 0.23064,-0.126036 0.38567,-0.234307 0.90879,-0.415638 1.41087,-0.489044 0.17815,-0.02602 0.26406,-0.05259 0.26406,-0.0815 0,-0.02362 0.0687,-0.178553 0.15289,-0.344353 0.1294,-0.255139 0.20526,-0.354054 0.49378,-0.643774 0.58505,-0.587508 1.22627,-0.931515 2.16226,-1.160019 0.56204,-0.137218 0.93051,-0.17916 1.56223,-0.177855 2.16283,0.0042 3.97777,1.020488 4.36071,2.441096 0.0775,0.287281 0.072,0.786964 -0.0114,1.069409 l -0.0626,0.211365 0.40647,-0.13707 c 1.06193,-0.358101 2.24563,-0.424401 3.3876,-0.189763 1.48945,0.306049 2.60276,1.121144 2.82918,2.071384 0.0464,0.194613 0.0477,0.608523 0.003,0.762803 -0.052,0.177728 -0.0465,0.184637 0.16922,0.208573 0.56628,0.06282 1.32871,0.28628 1.90125,0.55717 1.03579,0.490059 1.83609,1.24534 2.25146,2.124817 0.63989,1.354893 0.32029,2.846243 -0.85317,3.981148 -0.66455,0.642711 -1.50886,1.101848 -2.49259,1.355507 -0.20773,0.05358 -0.38581,0.107628 -0.39574,0.120163 -0.75105,0.947667 -1.4195,1.489193 -2.46917,2.000297 -1.48143,0.721327 -3.36039,0.953025 -5.06859,0.625021 -0.64452,-0.123759 -1.46204,-0.398132 -2.00919,-0.674337 l -0.2069,-0.104442 -0.34622,0.164411 c -0.84427,0.400909 -1.69975,0.655153 -2.73657,0.813332 -0.34888,0.05323 -0.63982,0.07148 -1.26279,0.07922 -0.44521,0.0056 -0.87504,0.0042 -0.95518,-0.0028 z"
       style="fill:#ffffff;fill-opacity:1;stroke:#000000;stroke-width:4.00000048;stroke-miterlimit:4;stroke-dasharray:none;stroke-opacity:1" />
    <path
       sodipodi:nodetypes="scccsccccsccsssscccsssscccscccsscsssccccsccssccsscsssccss"
       inkscape:connector-curvature="0"
       id="path4234"
       d="m 810.18259,-151.057 c -5.86966,0 -10.71062,4.71513 -11.07618,10.78865 l -0.0678,1.13212 -0.75882,-0.058 c -0.97575,-0.0742 -2.31927,0.21178 -3.39475,0.72207 -1.04377,0.49527 -2.66245,2.06881 -3.19708,3.10804 l -0.35939,0.69919 -0.93772,-0.47947 c -2.00361,-1.02364 -3.96555,-1.48908 -6.27486,-1.48827 -1.63971,4.4e-4 -2.87489,0.19605 -4.33003,0.68451 -3.96076,1.32961 -7.0291,4.47688 -8.1454,8.35617 l -0.29488,1.02428 h -0.89117 c -4.25296,0 -8.40691,2.45837 -9.57076,5.6647 -0.88129,2.42791 -0.27358,4.69524 1.81172,6.76253 0.91426,0.90638 1.27682,1.16746 2.37451,1.70964 1.90784,0.94229 3.33952,1.27769 5.55036,1.29956 l 1.77253,0.0172 0.89603,0.87728 c 1.24197,1.21613 3.03822,2.0396 4.44847,2.0396 0.42904,0 0.4842,0.046 0.8593,0.71392 0.62843,1.11867 2.00222,2.38956 3.23627,2.9945 1.43238,0.70214 2.39145,0.92957 3.95834,0.93772 1.58044,0.01 2.70854,-0.25232 4.03759,-0.932 l 0.94018,-0.48112 0.38799,0.46231 c 2.41854,2.8831 5.93487,4.776191 9.71615,5.230166 3.65723,0.439073 7.78438,-0.714792 10.71353,-2.994496 l 0.78253,-0.60936 1.20073,0.51462 c 2.38073,1.02115 4.62569,1.43715 7.1505,1.32407 4.09079,-0.18329 7.56117,-1.6652 10.46683,-4.4705 0.88513,-0.85456 1.98214,-2.11088 2.2177,-2.53952 0.0109,-0.0196 0.34752,0.15992 0.74904,0.39779 0.8575,0.5082 2.62971,1.12198 3.7713,1.30611 3.23867,0.5224 6.85581,-0.59951 9.18197,-2.84747 0.45919,-0.44375 0.94341,-0.95351 1.07656,-1.13294 l 0.2426,-0.32591 1.11089,0.38228 c 1.0009,0.34475 1.25911,0.38264 2.60079,0.38228 1.3066,-3.8e-4 1.61148,-0.0424 2.48151,-0.3447 2.40148,-0.83418 4.11987,-2.50995 4.91568,-4.79478 0.41321,-1.18611 0.41097,-3.07074 -0.003,-4.33818 -0.59412,-1.81417 -2.04408,-3.49984 -3.75496,-4.36348 -0.98916,-0.49932 -2.42821,-0.85688 -3.4495,-0.85688 h -0.82742 l -0.32347,-1.30691 c -1.56024,-6.30572 -8.10428,-10.74 -15.857,-10.74457 -2.05297,-8.6e-4 -3.12339,0.12546 -4.94016,0.58486 -0.70333,0.1779 -1.29178,0.30343 -1.30773,0.27853 -0.0154,-0.0249 -0.24935,-0.49201 -0.5187,-1.03817 -0.37234,-0.755 -0.72905,-1.2313 -1.48582,-1.98736 -1.48725,-1.4858 -3.05732,-2.17111 -4.97692,-2.17111 h -0.88953 l -0.0827,-0.62161 c -0.22121,-1.66759 -1.18289,-3.81633 -2.37369,-5.30286 -2.15808,-2.69397 -5.18324,-4.16583 -8.56118,-4.16583 z"
       style="color:#000000;display:inline;overflow:visible;visibility:visible;opacity:1;fill:#ffffff;fill-opacity:1;fill-rule:nonzero;stroke:#000000;stroke-width:4.00000048;stroke-linecap:butt;stroke-linejoin:miter;stroke-miterlimit:4;stroke-dasharray:none;stroke-dashoffset:0;stroke-opacity:1;marker:none;enable-background:accumulate"
       inkscape:export-filename="/Users/chrisjrn/Desktop/nbp-logo-2"
       inkscape:export-xdpi="187.72"
       inkscape:export-ydpi="187.72" />
    <path
       inkscape:export-ydpi="187.72"
       inkscape:export-xdpi="187.72"
       inkscape:export-filename="/Users/chrisjrn/Desktop/nbp-logo-2"
       style="color:#000000;display:inline;overflow:visible;visibility:visible;opacity:1;fill:#ffffff;fill-opacity:1;fill-rule:nonzero;stroke:#000000;stroke-width:4.00000048;stroke-linecap:butt;stroke-linejoin:miter;stroke-miterlimit:4;stroke-dasharray:none;stroke-dashoffset:0;stroke-opacity:1;marker:none;enable-background:accumulate"
       d="m 605.90078,-149.83951 c -3.40511,0 -6.21344,2.73534 -6.42551,6.25871 l -0.0393,0.65677 -0.44021,-0.0336 c -0.56605,-0.0431 -1.34545,0.12285 -1.96936,0.41888 -0.60551,0.28732 -1.54454,1.20016 -1.85469,1.80304 l -0.20849,0.40561 -0.54399,-0.27815 c -1.16233,-0.59383 -2.30049,-0.86384 -3.64017,-0.86337 -0.95123,2.5e-4 -1.66778,0.11373 -2.51193,0.39709 -2.29772,0.77134 -4.07772,2.59713 -4.72531,4.84759 l -0.17107,0.59421 h -0.51698 c -2.46723,0 -4.87701,1.42614 -5.55219,3.2862 -0.51125,1.40848 -0.15871,2.7238 1.05102,3.92307 0.53038,0.52582 0.7407,0.67727 1.3775,0.9918 1.10677,0.54664 1.93732,0.74121 3.21987,0.7539 l 1.02828,0.01 0.51981,0.50892 c 0.72048,0.7055 1.76253,1.18322 2.58064,1.18322 0.24889,0 0.28089,0.0267 0.4985,0.41415 0.36456,0.64897 1.16152,1.38623 1.87742,1.73717 0.83095,0.40733 1.38733,0.53927 2.29631,0.544 0.91685,0.006 1.57128,-0.14638 2.34228,-0.54068 l 0.54542,-0.27911 0.22508,0.2682 c 1.40305,1.67255 3.44294,2.77076 5.63653,3.03412 2.12164,0.25472 4.51588,-0.41466 6.21514,-1.73716 l 0.45396,-0.3535 0.69656,0.29854 c 1.38111,0.59239 2.68346,0.83371 4.14815,0.76812 2.37315,-0.10633 4.38638,-0.96601 6.07202,-2.59343 0.51348,-0.49574 1.14987,-1.22456 1.28653,-1.47323 0.006,-0.0113 0.2016,0.0928 0.43453,0.23077 0.49745,0.29482 1.52555,0.65088 2.1878,0.7577 1.87882,0.30305 3.9772,-0.34779 5.32665,-1.65187 0.26638,-0.25743 0.54729,-0.55315 0.62453,-0.65725 l 0.14074,-0.18906 0.64445,0.22177 c 0.58064,0.19999 0.73043,0.22197 1.50877,0.22176 0.75798,-2.2e-4 0.93485,-0.0246 1.43957,-0.19996 1.39315,-0.48393 2.39002,-1.45607 2.85168,-2.78155 0.23971,-0.68809 0.23841,-1.7814 -0.002,-2.51666 -0.34466,-1.05243 -1.18582,-2.03033 -2.17833,-2.53135 -0.57383,-0.28966 -1.40865,-0.49709 -2.00112,-0.49709 h -0.48001 l -0.18765,-0.75816 c -0.90512,-3.65808 -4.70145,-6.23049 -9.19896,-6.23314 -1.19096,-7.1e-4 -1.81194,0.0728 -2.86588,0.33928 -0.40802,0.10321 -0.74939,0.17603 -0.75864,0.16159 -0.009,-0.0144 -0.14465,-0.28542 -0.30091,-0.60227 -0.216,-0.43798 -0.42293,-0.71429 -0.86195,-1.1529 -0.86279,-0.86194 -1.77362,-1.25951 -2.88722,-1.25951 h -0.51603 l -0.0479,-0.36061 c -0.12833,-0.9674 -0.68622,-2.21392 -1.37702,-3.07629 -1.25195,-1.56282 -3.0069,-2.41667 -4.96651,-2.41667 z"
       id="path4236"
       inkscape:connector-curvature="0"
       sodipodi:nodetypes="scccsccccsccsssscccsssscccscccsscsssccccsccssccsscsssccss" />
    <g
       style="stroke-width:18.33097076;stroke-miterlimit:4;stroke-dasharray:none"
       id="g4238"
       transform="matrix(0.21820996,0,0,0.21820996,534.00243,-141.47718)">
      <path
         inkscape:export-ydpi="187.72"
         inkscape:export-xdpi="187.72"
         inkscape:export-filename="/Users/chrisjrn/Desktop/nbp-logo-2"
         sodipodi:nodetypes="csscssssssssssssscsssssssssssscssssssssscssscssssscssscssscc"
         inkscape:connector-curvature="0"
         id="path4240"
         d="m -618.36935,-28.423272 c -1.6609,-0.14878 -5.97823,-0.80638 -7.5025,-1.14323 -6.49697,-1.43593 -13.23811,-4.38986 -18.13859,-7.94834 l -1.19181,-0.86539 -1.22969,0.6193 c -3.00493,1.51324 -5.563,2.08969 -9.27336,2.08969 -3.00049,0 -4.2177,-0.18605 -6.72675,-1.02834 -1.89187,-0.63511 -4.22873,-1.85499 -5.73479,-2.99378 -0.71929,-0.54386 -1.4269,-0.95233 -1.5726,-0.90769 -0.14567,0.0447 -1.16556,0.40514 -2.26638,0.80218 -1.10089,0.3967 -3.00739,0.93274 -4.23668,1.19153 -1.99492,0.41999 -2.63364,0.47158 -5.94224,0.48348 -3.8866,0.0155 -4.90732,-0.0997 -8.11883,-0.89953 -4.67564,-1.1646 -8.70468,-3.3738 -11.84584,-6.49517 -2.45218,-2.43672 -4.0436,-5.09632 -4.86293,-8.12706 -0.54209,-2.00505 -0.54212,-5.58486 -2.5e-4,-7.59075 1.86217,-6.89308 8.5787,-12.68694 16.98825,-14.65453 l 1.33999,-0.31339 -0.0829,-1.72141 c -0.14629,-3.03906 0.7925,-5.11126 3.4357,-7.58339 1.65335,-1.54622 3.55398,-2.71896 5.99194,-3.69704 1.79464,-0.72 5.75336,-1.77535 6.65941,-1.77535 0.5866,0 0.59828,0.18449 -0.16182,-2.559689 -0.44925,-1.62269 -0.48991,-2.02902 -0.50262,-5.03109 -0.009,-2.161559 0.0659,-3.594079 0.22115,-4.236739 1.07958,-4.45636 2.89833,-7.80195 5.85509,-10.77045 2.91746,-2.92895 6.496,-4.8393 10.7683,-5.74833 1.83708,-0.39076 5.67274,-0.43785 7.59081,-0.0932 2.79742,0.50283 5.9351,1.77756 8.3206,3.38038 2.47911,1.66578 5.68652,5.35751 6.89584,7.93716 0.22301,0.47655 0.4577,0.87008 0.52078,0.87403 0.0631,0.003 0.62875,-0.30501 1.25747,-0.68717 2.10266,-1.27741 4.95472,-2.26604 7.69203,-2.66625 0.97128,-0.14195 1.43966,-0.28669 1.43966,-0.44432 0,-0.12889 0.3749,-0.97348 0.83356,-1.87742 0.7055,-1.39102 1.11909,-1.93028 2.69209,-3.50983 3.18967,-3.2031 6.68557,-5.07862 11.7886,-6.32441 3.06422,-0.74811 5.07315,-0.9768 8.51723,-0.96966 11.79177,0.0248 21.68673,5.56368 23.77455,13.3088 0.42251,1.56626 0.39275,4.2905 -0.0624,5.83042 l -0.34116,1.15236 2.2161,-0.74734 c 5.78961,-1.95233 12.24312,-2.31381 18.46916,-1.03457 8.12041,1.66857 14.19018,6.112479 15.4246,11.293159 0.25283,1.061 0.25997,3.317669 0.0155,4.158769 -0.28358,0.96898 -0.25345,1.00666 0.92258,1.13714 3.08736,0.34265 7.24411,1.56079 10.36561,3.0377 5.64711,2.67181 10.01032,6.78958 12.27487,11.58447 3.48872,7.38683 1.74629,15.51765 -4.65142,21.70514 -3.62314,3.50403 -8.22626,6.00725 -13.58957,7.3902 -1.13254,0.29196 -2.10342,0.58681 -2.15755,0.65514 -4.0947,5.16667 -7.73909,8.11905 -13.4619,10.90556 -8.07671,3.93266 -18.32078,5.1959 -27.63387,3.40763 -3.51391,-0.67472 -7.97101,-2.17063 -10.95408,-3.67648 l -1.12797,-0.56942 -1.88764,0.89636 c -4.60293,2.18575 -9.26699,3.57189 -14.91975,4.43427 -1.90202,0.2901 -3.48822,0.38974 -6.88469,0.43189 -2.42725,0.0311 -4.77069,0.0249 -5.20761,-0.0155 z"
         style="fill:#ffffff;fill-opacity:1;stroke:#000000;stroke-width:18.33097076;stroke-miterlimit:4;stroke-dasharray:none;stroke-opacity:1" />
    </g>
  </g>
</svg>
